<svg
   class="olympiad-logo"
   fill="currentColor"
   version="1.1"
   width="512"
   height="512"
   viewBox="0 0 512 512"
   sodipodi:docname="ioi.svg"
   inkscape:version="1.3.2 (091e20ef0f, 2023-11-25)"
   xmlns:inkscape="http://www.inkscape.org/namespaces/inkscape"
   xmlns:sodipodi="http://sodipodi.sourceforge.net/DTD/sodipodi-0.dtd"
   xmlns="http://www.w3.org/2000/svg"
   xmlns:svg="http://www.w3.org/2000/svg">
  <defs
     id="defs1" />
  <sodipodi:namedview
     id="namedview1"
     pagecolor="#ffffff"
     bordercolor="#000000"
     borderopacity="0.25"
     inkscape:showpageshadow="2"
     inkscape:pageopacity="0.0"
     inkscape:pagecheckerboard="0"
     inkscape:deskcolor="#d1d1d1"
     inkscape:zoom="1.08"
     inkscape:cx="310.64815"
     inkscape:cy="268.98148"
     inkscape:window-width="1580"
     inkscape:window-height="955"
     inkscape:window-x="0"
     inkscape:window-y="0"
     inkscape:window-maximized="1"
     inkscape:current-layer="g1" />
  <g
     inkscape:groupmode="layer"
     inkscape:label="Image"
     id="g1">
    <path
       id="path6"
       style="stroke-width:1.35364"
       d="M 442.47461 114.91211 L 437.27734 114.94531 L 432.08008 114.97656 L 429.16016 115.67969 L 426.24219 116.38281 L 422.78906 117.71289 L 419.33594 119.04492 L 415.99805 121.22656 L 412.6582 123.4043 L 410.08008 125.85742 L 407.50586 128.30859 L 405.6582 130.9082 L 403.80859 133.50781 L 402.50781 136.10547 L 401.20703 138.70508 L 400.29102 141.68164 L 399.37305 144.6582 L 398.89453 148.71094 L 398.41602 152.76172 L 398.92969 157.21484 L 399.43945 161.66406 L 400.51758 164.91211 L 401.5957 168.16016 L 403.3418 171.4082 L 405.08594 174.6582 L 407.46289 177.59766 L 409.83789 180.54102 L 412.70312 182.9043 L 415.56836 185.26758 L 419.27539 187.16406 L 422.98438 189.05859 L 425.18164 189.77344 L 427.38086 190.48633 L 429.29883 190.88867 L 431.21289 191.29102 L 437.92773 191.1582 L 444.64258 191.02539 L 448.32422 189.83008 L 452.00586 188.63281 L 454.17188 187.54102 L 456.33789 186.44922 L 458.93555 184.70898 L 461.53516 182.9668 L 464.7832 179.64258 L 468.0332 176.31641 L 470.07227 172.88867 L 472.11328 169.46094 L 473.41602 165.53906 L 474.71875 161.61914 L 475.18555 157.52539 L 475.65234 153.43359 L 475.38086 150.61719 L 475.10742 147.80273 L 474.28125 144.20703 L 473.45312 140.61133 L 471.98828 137.4375 L 470.52344 134.26758 L 468.65625 131.50586 L 466.79297 128.74219 L 463.94336 125.87695 L 461.09375 123.01367 L 457.72266 120.81055 L 454.35156 118.61133 L 451.01172 117.33203 L 447.67383 116.05469 L 445.07422 115.48438 L 442.47461 114.91211 z M 80.351562 114.9375 L 74.935547 114.93945 L 69.521484 114.94336 L 65.677734 115.89258 L 61.832031 116.8418 L 58.261719 118.51367 L 54.693359 120.1875 L 52.058594 121.97266 L 49.429688 123.75977 L 46.666016 126.52344 L 43.902344 129.28516 L 42.271484 131.74609 L 40.638672 134.20898 L 39.212891 137.32227 L 37.791016 140.43945 L 37.056641 143.25586 L 36.324219 146.06836 L 36.085938 150.83594 L 35.845703 155.59961 L 36.333984 158.71875 L 36.820312 161.8418 L 37.894531 165.2168 L 38.966797 168.59375 L 41.029297 172.27734 L 43.089844 175.95703 L 47.425781 180.29102 L 51.763672 184.62109 L 55.046875 186.46875 L 58.330078 188.31641 L 60.894531 189.22266 L 63.457031 190.12695 L 66.056641 190.69531 L 68.654297 191.26758 L 74.068359 191.29883 L 79.484375 191.32812 L 83.052734 190.47461 L 86.619141 189.61719 L 89.318359 188.48242 L 92.017578 187.3457 L 95.339844 185.21875 L 98.660156 183.08789 L 102.10742 179.49414 L 105.55664 175.90234 L 107.33984 172.89844 L 109.12109 169.89453 L 110.1875 167.05273 L 111.25391 164.20703 L 111.9375 160.89844 L 112.62109 157.58594 L 112.62109 153.53125 L 112.62109 149.47656 L 112.16602 146.90625 L 111.71289 144.33594 L 110.80859 141.52148 L 109.90039 138.70508 L 108.61133 136.10742 L 107.32031 133.50781 L 105.45898 130.9082 L 103.59766 128.31055 L 100.63672 125.42578 L 97.677734 122.54297 L 94.638672 120.59766 L 91.599609 118.6543 L 88.9375 117.57031 L 86.273438 116.49023 L 83.3125 115.71289 L 80.351562 114.9375 z M 255.5332 148.66992 L 248.84766 148.95703 L 242.16016 149.24805 L 236.14062 150.1582 L 230.12305 151.07031 L 224.91211 152.3418 L 219.70117 153.61523 L 214.56641 155.33398 L 209.43359 157.05273 L 204.66797 159.16211 L 199.9043 161.27539 L 195.35742 163.82617 L 190.8125 166.38086 L 185.82812 169.73047 L 180.8457 173.08008 L 177.8125 175.50977 L 174.78125 177.93945 L 169.88867 182.51758 L 165 187.09766 L 160.75977 192.13867 L 156.51953 197.18359 L 154.54688 199.7832 L 152.57812 202.38086 L 151.00977 204.98047 L 149.44141 207.57812 L 149.44141 183.21289 L 149.44141 158.84766 L 132.35742 158.84766 L 115.27344 158.84766 L 115.04102 159.22266 L 114.80859 159.59961 L 113.25391 164.74609 L 111.70117 169.89453 L 110.16992 172.70898 L 108.64062 175.52539 L 106.83984 177.87109 L 105.04102 180.21875 L 100.95508 183.82227 L 96.865234 187.42578 L 93.587891 189.10938 L 90.3125 190.79297 L 87.617188 191.71094 L 84.919922 192.625 L 81.169922 193.28125 L 77.421875 193.93359 L 74.285156 193.93359 L 71.150391 193.93359 L 67.521484 193.29688 L 63.890625 192.66211 L 60.857422 191.62891 L 57.826172 190.5918 L 55.443359 189.38867 L 53.060547 188.18555 L 51.113281 186.86133 L 49.164062 185.54102 L 46.189453 182.69727 L 43.21875 179.85547 L 41.371094 177.25781 L 39.519531 174.6582 L 38.230469 172.05859 L 36.939453 169.46094 L 36.253906 167.29492 L 35.570312 165.12695 L 34.660156 161.98828 L 33.748047 158.84766 L 16.875 158.84766 L 0 158.84766 L 0 187.86914 L 0 216.89062 L 17.107422 216.89062 L 34.21875 216.89062 L 34.21875 273.63477 L 34.21875 330.37891 L 17.107422 330.37891 L 0 330.37891 L 0 359.40234 L 0 388.42383 L 74.501953 388.42383 L 149.00781 388.42383 L 149.00781 370.08398 L 149.00781 351.74414 L 149.29102 345.21875 L 149.57227 338.69336 L 152.36523 342.87695 L 155.1582 347.05664 L 158.43945 351.17383 L 161.7207 355.28711 L 166.95117 360.49219 L 172.18164 365.70117 L 176.56055 369.20117 L 180.93555 372.70508 L 185.87109 375.98242 L 190.80664 379.25781 L 195.53516 381.875 L 200.26172 384.49219 L 204.84961 386.50195 L 209.43359 388.51172 L 212.89844 389.77734 L 216.36523 391.04688 L 221.7793 392.5332 L 227.19336 394.02148 L 231.74219 394.86719 L 236.28906 395.71289 L 241.05664 396.18945 L 245.82031 396.66602 L 247.55078 396.80273 L 249.28516 396.94336 L 254.0957 397.01367 L 258.90625 397.08789 L 264.49023 396.64453 L 270.07617 396.19727 L 275.43945 395.33594 L 280.79688 394.47266 L 285.96875 393.16797 L 291.14062 391.86133 L 295.76953 390.30078 L 300.39844 388.74219 L 305.59766 386.47852 L 310.79492 384.21484 L 314.9082 381.93945 L 319.02539 379.66602 L 323.78906 376.54297 L 328.55273 373.41992 L 333.10352 369.77148 L 337.65039 366.12109 L 343.08008 360.70312 L 348.51172 355.28711 L 352.15234 350.73828 L 355.78906 346.19141 L 359.17383 341.02344 L 362.55859 335.85742 L 362.55859 362.13867 L 362.55859 388.42383 L 437.27734 388.42383 L 512 388.42383 L 512 359.40234 L 512 330.37891 L 494.88867 330.37891 L 477.7793 330.37891 L 477.7793 273.63477 L 477.7793 216.89062 L 494.62695 216.89062 L 511.47461 216.89062 L 511.73633 216.20508 L 512 215.52148 L 512 187.18359 L 512 158.84766 L 494.90234 158.84766 L 477.80664 158.84766 L 476.69141 162.63672 L 475.57812 166.42773 L 474.50195 169.27734 L 473.42969 172.12891 L 471.27734 175.4043 L 469.125 178.68164 L 465.11523 182.47266 L 461.10156 186.26367 L 458.93555 187.6582 L 456.77148 189.04883 L 453.61914 190.42773 L 450.4668 191.80859 L 447.12109 192.67383 L 443.77539 193.53516 L 439.62891 193.79688 L 435.48047 194.05664 L 431.83203 193.53516 L 428.18359 193.01367 L 425.29492 192.16797 L 422.41211 191.32031 L 419.88086 190.20703 L 417.35352 189.09375 L 413.88867 186.7793 L 410.42188 184.46875 L 407.08984 180.76172 L 403.75586 177.05859 L 401.98438 174.02539 L 400.21484 170.99414 L 398.88672 166.76172 L 397.55859 162.52734 L 397.02344 160.79688 L 396.48828 159.06445 L 379.52344 158.95117 L 362.55859 158.83789 L 362.55859 184.19922 L 362.55859 209.5625 L 358.70117 203.80273 L 354.8457 198.04883 L 351.22852 193.7168 L 347.61523 189.38477 L 342.91211 184.71875 L 338.20898 180.05078 L 333.59766 176.34961 L 328.98633 172.65234 L 324.22266 169.48242 L 319.45898 166.3125 L 315.02148 163.8418 L 310.58594 161.37109 L 305.70703 159.21094 L 300.83203 157.04688 L 295.41797 155.19141 L 290.00391 153.33789 L 284.37305 151.99609 L 278.74023 150.6543 L 273.97656 149.95117 L 269.20898 149.25 L 262.37305 148.96094 L 255.5332 148.66992 z M 253.16016 216.34766 L 256.63672 216.58203 L 260.11523 216.81641 L 262.93164 217.70703 L 265.74609 218.60156 L 268.55859 220.23828 L 271.37305 221.87109 L 275.33008 225.77148 L 279.28906 229.66992 L 281.52734 233.11523 L 283.76367 236.56055 L 285.51367 240.24023 L 287.26172 243.92188 L 288.55273 247.76953 L 289.83984 251.61914 L 290.64648 255.37109 L 291.45312 259.125 L 291.97852 263.40234 L 292.50781 267.68359 L 292.25391 275.31641 L 292.00195 282.94922 L 290.9082 288.17578 L 289.81055 293.40625 L 288.31445 297.70703 L 286.81445 302.00781 L 285.48242 304.97656 L 284.15039 307.94727 L 281.83594 311.49609 L 279.52344 315.04688 L 276.76758 317.99023 L 274.01562 320.93359 L 271.39648 322.78906 L 268.77539 324.64453 L 266.46289 325.80859 L 264.14648 326.9707 L 260.86914 327.80859 L 257.59375 328.64844 L 254.73828 328.62305 L 251.88477 328.59961 L 248.72852 327.77148 L 245.57422 326.94727 L 242.63672 325.4043 L 239.69922 323.85938 L 236.91211 321.54297 L 234.12305 319.22461 L 232.34961 317.11328 L 230.57227 315.00195 L 228.58203 312.03125 L 226.58789 309.0625 L 224.8418 305.48242 L 223.0918 301.90234 L 221.56055 297.32617 L 220.0293 292.75 L 219.19141 288.71484 L 218.35352 284.68164 L 217.84766 279.69922 L 217.3457 274.71875 L 217.61523 269.52148 L 217.88477 264.32422 L 218.54688 260.20703 L 219.20508 256.09375 L 220.31445 251.97656 L 221.42188 247.86328 L 223.36914 243.09961 L 225.31445 238.33203 L 227.26562 235.05273 L 229.21484 231.77539 L 231.88672 228.66797 L 234.55664 225.5625 L 237.53906 223.20703 L 240.52148 220.85156 L 243.25195 219.50781 L 245.98438 218.16211 L 249.57227 217.25586 L 253.16016 216.34766 z M 114.78711 216.89062 L 129.29883 216.89062 L 143.81055 216.89062 L 143.81055 217.24023 L 143.81055 217.58789 L 141.90234 222.76172 L 139.99609 227.93555 L 138.23242 234.21875 L 136.4707 240.5 L 135.39062 245.91406 L 134.31055 251.32812 L 133.62695 256.31055 L 132.93945 261.29102 L 132.68359 270.83984 L 132.42578 280.38672 L 132.95508 286.2168 L 133.48633 292.04688 L 134.32422 297.02734 L 135.16211 302.00781 L 136.66992 307.74805 L 138.17969 313.49023 L 139.96875 318.36328 L 141.75586 323.23242 L 143.40625 326.80664 L 145.05273 330.37891 L 129.91992 330.37891 L 114.78711 330.37891 L 114.78711 273.63477 L 114.78711 216.89062 z M 366.55273 216.89062 L 381.66406 216.89062 L 396.77734 216.89062 L 396.77734 273.63477 L 396.77734 330.37891 L 381.17578 330.37891 L 365.57422 330.37891 L 366.61914 328.32227 L 367.66016 326.26562 L 369.60156 321.71875 L 371.53906 317.16797 L 373.32422 311.75391 L 375.10547 306.33984 L 376.21289 301.69922 L 377.32031 297.05859 L 378.19922 291.30273 L 379.08008 285.54883 L 379.32422 276.41602 L 379.56836 267.28711 L 379.03711 261.47266 L 378.50586 255.66016 L 377.66211 250.89453 L 376.82227 246.13086 L 375.34375 240.47656 L 373.86523 234.82031 L 372.38477 230.72852 L 370.90234 226.63867 L 368.72852 221.76562 L 366.55273 216.89062 z " />
  </g>
</svg>
