<?xml version="1.0" encoding="UTF-8" standalone="no"?>
<!-- Created with Inkscape (http://www.inkscape.org/) -->

<svg
   width="512"
   height="512"
   viewBox="0 0 135.46666 135.46667"
   version="1.1"
   id="svg1"
   xml:space="preserve"
   inkscape:version="1.3.2 (091e20ef0f, 2023-11-25)"
   sodipodi:docname="OlyPrep-logo_black.svg"
   inkscape:export-filename="OlyPrep-logo_black.png"
   inkscape:export-xdpi="96"
   inkscape:export-ydpi="96"
   xmlns:inkscape="http://www.inkscape.org/namespaces/inkscape"
   xmlns:sodipodi="http://sodipodi.sourceforge.net/DTD/sodipodi-0.dtd"
   xmlns="http://www.w3.org/2000/svg"
   xmlns:svg="http://www.w3.org/2000/svg"><sodipodi:namedview
     id="namedview1"
     pagecolor="#000000"
     bordercolor="#000000"
     borderopacity="0.25"
     inkscape:showpageshadow="2"
     inkscape:pageopacity="0.0"
     inkscape:pagecheckerboard="false"
     inkscape:deskcolor="#d1d1d1"
     inkscape:document-units="mm"
     inkscape:zoom="1"
     inkscape:cx="268.5"
     inkscape:cy="282.5"
     inkscape:window-width="1580"
     inkscape:window-height="955"
     inkscape:window-x="0"
     inkscape:window-y="0"
     inkscape:window-maximized="1"
     inkscape:current-layer="layer1"
     inkscape:export-bgcolor="#000000ff" /><defs
     id="defs1" /><g
     inkscape:label="Layer 1"
     inkscape:groupmode="layer"
     id="layer1"><path
       d="m 69.353494,22.850202 1.266894,0.676114 c 5.27197,2.813289 10.952989,7.867873 15.202117,13.525276 l 0.992986,1.322391 10.619106,0.03581 c 8.950253,0.03061 10.816113,0.09272 11.871683,0.39266 4.549,1.292658 8.1216,4.13515 9.79321,7.791728 1.08139,2.365522 1.43538,4.034872 1.44889,6.829772 0.0153,3.193599 -0.33446,4.751817 -1.68342,7.503499 -1.87191,3.818411 -4.98951,6.009101 -10.02713,7.045794 -8.976343,1.847238 -13.398733,3.847874 -18.557628,8.393846 -3.255607,2.868811 -7.172023,8.074225 -8.975664,11.93017 -3.007551,6.429725 -3.986998,11.024915 -4.203483,19.722488 l -0.137849,5.54379 h 7.985662 7.985659 v -5.17916 c 0,-4.64285 0.0584,-5.46742 0.56214,-7.95525 1.16585,-5.757973 3.49944,-9.870906 7.328643,-12.916591 1.94949,-1.550586 3.90217,-2.3569 7.11621,-2.939576 7.3746,-1.33693 8.81213,-1.727794 11.98326,-3.25645 5.95086,-2.868628 10.37724,-7.542774 13.19168,-13.92987 0.50648,-1.149397 1.1986,-3.444745 1.73057,-5.739514 0.85486,-3.687435 0.81899,-11.860366 -0.0692,-15.726675 -0.90127,-3.923159 -3.00235,-8.551286 -5.19528,-11.44382 -4.6162,-6.088889 -10.91856,-9.862087 -18.69069,-11.190801 -2.38844,-0.408343 -3.75778,-0.435626 -22.04263,-0.435626 z"
       style="fill:#e97d28;fill-opacity:1;stroke-width:0.634912"
       id="path4" /><path
       d="m 45.671013,21.903164 c -2.328498,-0.0022 -4.674564,0.118719 -6.379818,0.36342 C 29.750349,23.635668 21.104577,27.872675 14.151458,34.587026 6.8227442,41.664068 2.6955542,49.291692 0.6261982,59.583572 -0.0600804,62.996805 -0.2093391,69.690566 0.3135031,73.601163 1.7120142,84.061335 6.6804762,93.880537 14.137733,100.92264 c 6.727979,6.35341 15.78321,10.71432 25.041273,12.05966 2.905735,0.42237 9.606733,0.4321 12.516759,0.0185 7.014177,-0.99695 13.150987,-3.34042 19.177046,-7.32386 l 1.791434,-1.18455 0.279873,-2.54752 C 74.296081,89.628802 80.414944,78.157909 89.463255,70.97608 91.316827,69.50486 91.274107,69.693405 90.925287,64.497792 90.534128,58.671684 89.08885,52.921045 86.800573,48.089005 83.039844,40.14761 76.653588,33.002199 69.360059,28.574178 64.161752,25.418191 58.02709,23.199947 51.946399,22.278495 50.310652,22.030573 47.999509,21.905367 45.671013,21.903141 Z m -1.034759,16.230927 c 2.021117,-0.05869 4.055594,0.02568 5.537211,0.26973 10.689784,1.760781 20.141408,9.736418 23.506442,19.835876 1.839335,5.520708 1.825733,13.102038 -0.03342,18.702653 -3.42284,10.311164 -12.48588,18.230727 -22.807053,19.928967 -8.780066,1.44467 -16.73364,-0.51941 -23.69561,-5.851103 -3.619215,-2.771715 -7.12627,-7.318582 -8.91599,-11.560187 -2.510972,-5.950966 -3.070173,-11.698588 -1.758016,-18.05936 2.251896,-10.916235 11.431132,-20.082883 22.709188,-22.677586 1.428,-0.32854 3.436132,-0.530304 5.457248,-0.58899 z"
       style="fill:#fcfcfc;fill-opacity:1;stroke-width:0.634912"
       id="path3" /></g></svg>
