<?xml version="1.0" encoding="UTF-8" standalone="no"?>
<!-- Created with Inkscape (http://www.inkscape.org/) -->

<svg
   width="512"
   height="512"
   viewBox="0 0 135.46666 135.46667"
   version="1.1"
   id="svg1"
   xml:space="preserve"
   inkscape:version="1.3.2 (091e20ef0f, 2023-11-25)"
   sodipodi:docname="OlyPrep-logo_black.svg"
   inkscape:export-filename="OlyPrep-logo_black.png"
   inkscape:export-xdpi="96"
   inkscape:export-ydpi="96"
   xmlns:inkscape="http://www.inkscape.org/namespaces/inkscape"
   xmlns:sodipodi="http://sodipodi.sourceforge.net/DTD/sodipodi-0.dtd"
   xmlns="http://www.w3.org/2000/svg"
   xmlns:svg="http://www.w3.org/2000/svg"><sodipodi:namedview
     id="namedview1"
     pagecolor="#000000"
     bordercolor="#000000"
     borderopacity="0.25"
     inkscape:showpageshadow="2"
     inkscape:pageopacity="0.0"
     inkscape:pagecheckerboard="false"
     inkscape:deskcolor="#d1d1d1"
     inkscape:document-units="mm"
     inkscape:zoom="1"
     inkscape:cx="268.5"
     inkscape:cy="282.5"
     inkscape:window-width="1580"
     inkscape:window-height="955"
     inkscape:window-x="0"
     inkscape:window-y="0"
     inkscape:window-maximized="1"
     inkscape:current-layer="layer1"
     inkscape:export-bgcolor="#000000ff" /><defs
     id="defs1" /><g
     inkscape:label="Layer 1"
     inkscape:groupmode="layer"
     id="layer1"><path
       d="m 69.136348,28.865938 1.097091,0.585494 c 4.565366,2.43622 9.484955,6.813331 13.164571,11.712464 l 0.859896,1.145149 9.195821,0.03101 c 7.750643,0.02651 9.366423,0.08029 10.280513,0.340031 3.9393,1.119401 7.03306,3.58091 8.48062,6.747392 0.93645,2.048467 1.243,3.494072 1.2547,5.914368 0.0132,2.765556 -0.28963,4.114924 -1.45779,6.497794 -1.62102,3.306624 -4.32077,5.203693 -8.68319,6.101437 -7.773236,1.59965 -11.602895,3.332138 -16.07034,7.268807 -2.819257,2.4843 -6.210754,6.992025 -7.772652,10.331152 -2.604448,5.567944 -3.452619,9.547227 -3.640088,17.079058 l -0.119373,4.80074 h 6.91534 6.91534 v -4.48499 c 0,-4.020561 0.05059,-4.734612 0.486792,-6.888989 1.009589,-4.986225 3.030406,-8.547897 6.346383,-11.185364 1.688198,-1.342759 3.379161,-2.041002 6.162418,-2.545581 6.38618,-1.157739 7.63104,-1.496215 10.37714,-2.819983 5.15326,-2.484142 8.98637,-6.531806 11.42359,-12.06283 0.4386,-0.995342 1.03795,-2.983041 1.49862,-4.970239 0.74029,-3.193203 0.70922,-10.270705 -0.0599,-13.618807 -0.78048,-3.397332 -2.59995,-7.405145 -4.49896,-9.909989 -3.99749,-5.272786 -9.45514,-8.540257 -16.18557,-9.690882 -2.06831,-0.353612 -3.25412,-0.377238 -19.088241,-0.377238 z"
       style="fill:#e97d28;stroke-width:0.549814;fill-opacity:1"
       id="path4" /><path
       d="m 48.62804,28.045833 c -2.016408,-0.0019 -4.04803,0.102807 -5.524728,0.31471 -8.262082,1.185584 -15.749058,4.854699 -21.770247,10.669116 -6.346443,6.128496 -9.920464,12.733779 -11.7124636,21.646224 -0.5942964,2.955753 -0.7235499,8.75234 -0.2707845,12.138794 1.2110681,9.05818 5.5136051,17.561304 11.9713621,23.659538 5.826225,5.501855 13.66778,9.278265 21.684981,10.443285 2.516278,0.36576 8.319138,0.37419 10.839132,0.016 6.074064,-0.86333 11.388354,-2.8927 16.606738,-6.34224 l 1.551327,-1.025781 0.242362,-2.206067 c 1.170759,-10.665329 6.469508,-20.598762 14.30507,-26.818001 1.605139,-1.27403 1.568143,-1.110756 1.266073,-5.609994 -0.33873,-5.0452 -1.590297,-10.025073 -3.571875,-14.209468 -3.256677,-6.876999 -8.78698,-13.0647 -15.102954,-16.899227 -4.501576,-2.732986 -9.814006,-4.653916 -15.0797,-5.451864 -1.416507,-0.214693 -3.417886,-0.323117 -5.434293,-0.325045 z m -0.89607,14.055473 c 1.750226,-0.05082 3.512021,0.02224 4.795056,0.233578 9.257028,1.524781 17.441847,8.431432 20.355864,17.177246 1.592808,4.780759 1.581029,11.345953 -0.02894,16.19591 C 69.889874,84.637184 62.041557,91.495273 53.103735,92.965902 45.500465,94.21694 38.612912,92.516103 32.584058,87.899028 29.449928,85.49881 26.412925,81.561366 24.863082,77.888269 22.688657,72.734919 22.204406,67.757659 23.340694,62.24943 25.290767,52.796314 33.239706,44.858284 43.00616,42.611353 c 1.236604,-0.284505 2.975585,-0.459227 4.72581,-0.510047 z"
       style="fill:#fcfcfc;stroke-width:0.549814;fill-opacity:1"
       id="path3" /></g></svg>
